<?xml version="1.0" encoding="utf-8"?>
<!-- Generator: Adobe Illustrator 19.1.0, SVG Export Plug-In . SVG Version: 6.00 Build 0)  -->
<svg version="1.1" id="Layer_1" xmlns="http://www.w3.org/2000/svg" xmlns:xlink="http://www.w3.org/1999/xlink" x="0px" y="0px"
	 width="553.42px" height="312.64px" viewBox="0 0 553.42 312.64" style="enable-background:new 0 0 553.42 312.64;"
	 xml:space="preserve">
<style type="text/css">
	.Drop_x0020_Shadow{fill:none;}
	.Round_x0020_Corners_x0020_2_x0020_pt{fill:#FFFFFF;stroke:#231F20;stroke-miterlimit:10;}
	.Live_x0020_Reflect_x0020_X{fill:none;}
	.Bevel_x0020_Soft{fill:url(#SVGID_1_);}
	.Dusk{fill:#FFFFFF;}
	.Foliage_GS{fill:#FFDB00;}
	.Pompadour_GS{fill-rule:evenodd;clip-rule:evenodd;fill:#44ABE0;}
	.st0{fill:#F1F1F1;}
	.st1{fill:#FFFFFF;}
	.st2{fill:#66665D;}
	.st3{fill:#B88400;}
	.st4{fill:#778692;}
	.st5{clip-path:url(#SVGID_3_);}
	.st6{fill:#222222;}
	.st7{clip-path:url(#SVGID_3_);fill:#B88400;}
</style>
<linearGradient id="SVGID_1_" gradientUnits="userSpaceOnUse" x1="1008.0301" y1="-797.129" x2="1008.7372" y2="-796.4219">
	<stop  offset="0" style="stop-color:#DCDDE1"/>
	<stop  offset="0.1799" style="stop-color:#D8D9DD"/>
	<stop  offset="0.3642" style="stop-color:#CCCDD1"/>
	<stop  offset="0.5507" style="stop-color:#B7BABD"/>
	<stop  offset="0.7386" style="stop-color:#9A9EA0"/>
	<stop  offset="0.926" style="stop-color:#767B7C"/>
	<stop  offset="1" style="stop-color:#656B6C"/>
</linearGradient>
<g>
	<g>
		<g>
			<g>
				<path class="st1" d="M308.23,246.44v-2.16l3.83-0.8v-23.4c0-3.99-2.64-7.03-6.23-7.03c-4.31,0-8.31,4.15-8.31,5.99v24.44
					l3.83,0.8v2.16h-16.21v-2.16l4.39-0.8v-25.64c0-3.51-1.52-4.87-4.39-4.87v-2.16l9.02-3.75c1.84,2.32,2.8,4.71,3.19,7.03
					c3.03-3.35,6.79-7.03,11.66-7.03s8.71,2.56,9.9,6.87c2.64-3.83,6.79-6.87,11.02-6.87c10.22,0,12.62,6.63,12.62,14.77v21.64
					l4.39,0.8v2.16h-16.21v-2.16l3.83-0.8v-23.64c0-4.31-3.43-6.79-7.27-6.79c-3.51,0-7.51,3.43-7.51,4.39
					c0,1.28,0.24,3.12,0.24,5.67v20.37l3.83,0.8v2.16H308.23z"/>
				<path class="st1" d="M357.99,228.15c0.24,6.39,3.75,13.42,11.1,13.42c4.87,0,6.23-2.4,8.78-5.27l2.16,1.68
					c-3.91,5.67-7.99,9.58-15.33,9.58c-9.34,0-14.7-9.1-14.7-18.53c0-9.98,5.11-21.96,16.05-21.96c8.47,0,13.82,7.51,13.9,15.17
					L357.99,228.15z M366.46,222.4c3.19-0.8,4.39-2.56,4.39-6.39c0-3.99-2.4-6.15-5.99-6.15c-5.51,0-7.67,6.95-7.67,14.93
					L366.46,222.4z M359.67,202.91l10.7-11.5c1.6-1.68,2.72-2.88,4.39-2.88c2.32,0,3.83,1.68,3.83,3.03c0,2.72-1.52,3.04-6.63,6.23
					l-8.23,5.11H359.67z"/>
				<path class="st1" d="M394.01,207.07c1.52,1.36,2.8,4.39,3.35,6.63c3.03-3.59,7.43-6.63,11.18-6.63
					c7.51,0,12.14,4.87,12.14,13.18v23.24l3.83,0.8v2.16h-15.65v-2.16l3.83-0.8v-22.6c0-3.83-1.76-7.83-7.35-7.83
					c-3.83,0-5.35,2.4-7.59,4.71v25.72l3.83,0.8v2.16h-16.21v-2.16l4.39-0.8v-23.64c0-4.63-0.48-6.87-5.19-6.87v-2.16L394.01,207.07
					z"/>
				<path class="st1" d="M456.63,239.49c0,1.6,0.24,2.96,1.92,2.96c0.88,0,1.84-0.48,2.72-1.12l1.36,1.68
					c-0.88,1.6-3.91,4.55-7.51,4.55c-4.07,0-5.51-2.64-6.15-5.35c-3.04,3.19-6.07,5.35-10.62,5.35c-5.11,0-8.94-4.31-8.94-9.42
					c0-10.46,10.78-13.42,19.25-16.93v-3.91c0-4.23-3.19-7.43-5.91-7.43c-1.44,0-2.08,5.35-6.31,5.35c-3.11,0-4.55-1.2-4.55-3.75
					c0-3.35,3.75-4.39,6.79-4.39c5.91,0,17.97,3.51,17.97,12.7V239.49z M448.64,224.16c-6.79,1.84-10.94,5.43-10.94,11.42
					c0,3.27,2.88,6.39,5.27,6.39c2.24,0,4.63-1.2,5.67-2.56V224.16z"/>
				<path class="st1" d="M471.64,207.07c2.4,2,3.35,8.15,3.83,12.22h0.16c1.92-4.39,4.71-12.22,10.38-12.22
					c3.59,0,5.35,1.68,5.35,4.71c0,2.08-2.4,4.71-5.43,4.71c-2.16,0-4.15-0.88-4.71-0.88c-1.68,0-4.71,6.15-4.71,20.45
					c0,2.4,0.08,4.95,0.48,7.43l4.39,0.8v2.16h-17.25v-2.16l4.39-0.8v-21.56c0-4.55-1.36-9.58-5.83-9.58v-2.16L471.64,207.07z"/>
				<path class="st1" d="M515.97,195.81c0-2.64-1.52-3.43-4.39-3.43v-2.16l12.38-4.79v51.11c0,3.67,0.64,5.75,3.83,6.07v2.16
					l-8.87,2.79c-1.36-1.36-1.92-3.59-2.4-5.83c-2.48,2.56-5.99,5.83-10.06,5.83c-8.47,0-12.62-9.82-12.62-17.81
					c0-10.94,4.07-22.68,15.41-22.68c2.87,0,5.19,0.88,6.71,1.84V195.81z M515.97,215.37c0-3.11-2.95-5.51-6.23-5.51
					c-5.59,0-7.91,6.63-7.91,15.17c0,5.51,2,16.29,8.86,16.29c3.19,0,5.27-2.79,5.27-5.75V215.37z"/>
			</g>
		</g>
		<path class="st1" d="M147.75,175.5v-4.47l9.1-1.65L137,134.48l-7.61,12.24v22.66l7.94,1.65v4.47h-33.58v-4.47l9.1-1.65V70.63
			c0-5.46-3.14-7.11-9.1-7.11v-4.46l25.64-9.93v85.52h0.33l9.1-14.39c8.1-12.9,19.52-26.3,28.12-26.3c4.63,0,9.43,3.8,9.43,9.1
			c0,7.61-6.12,10.42-10.09,10.42c-3.97,0-7.11-3.64-9.92-3.64c-3.14,0-8.11,7.61-9.43,10.09l28.12,49.46l7.94,1.65v4.47H147.75z"/>
		<path class="st1" d="M246.51,161.11c0,3.31,0.5,6.12,3.97,6.12c1.82,0,3.8-0.99,5.62-2.31l2.81,3.47
			c-1.82,3.31-8.1,9.43-15.55,9.43c-8.44,0-11.41-5.46-12.74-11.08c-6.29,6.62-12.57,11.08-22,11.08
			c-10.59,0-18.53-8.93-18.53-19.52c0-21.67,22.33-27.79,39.87-35.07v-8.1c0-8.77-6.62-15.38-12.24-15.38
			c-2.98,0-4.3,11.08-13.07,11.08c-6.45,0-9.43-2.48-9.43-7.78c0-6.95,7.77-9.1,14.06-9.1c12.24,0,37.22,7.28,37.22,26.3V161.11z
			 M229.97,129.35c-14.06,3.8-22.66,11.25-22.66,23.65c0,6.78,5.95,13.23,10.92,13.23c4.63,0,9.59-2.48,11.74-5.29V129.35z"/>
		<path class="st1" d="M315.81,93.96c-6.29,0-10.09,3.63-10.09,10.58c0,4.96,4.48,9.44,9.92,12.25
			c-2.47,10.09-10.09,26.96-15.88,40.02L274.3,93.96l-20.52,6.27v4.48c7.28,0.66,8.93,2.15,16.22,20.34l19.91,50.18
			c-38.76,86.23-111.17,122.67-161.62,85.59c6.48-1.29,15.5-5.66,20.35-9.33c4.79-3.67,8.93-8.8,11.31-14.94
			c2.27-6.14,3.07-13.2,1.14-20.07c-1.74-6.83-6.48-13.37-12.94-17.02c-1.65-0.94-3.18-1.63-5.09-2.28c-0.97-0.3-1.95-0.6-2.94-0.84
			c-0.92-0.21-1.33-0.21-2.02-0.34c-3.6-0.6-7.32-0.41-10.84,0.41c-3.56,0.81-6.72,2.45-9.61,4.31c-2.73,1.98-5.22,4.21-7.17,6.72
			c-4.08,4.92-6.67,10.58-8.2,16.38c-2.83,10.77-0.36,22.62,2.1,29.59c-28.43,0-69.81-30.52-69.81-78.57
			c0-15.17,5.21-47.34,37.17-65.03c3.35-1.85,11.47-6.4,16.63-0.65c4.31,4.81,8.13,5.36,12.08,1.84c4.49-4.04,2.38-10.04-1.03-14.61
			c-0.49-0.69-1.03-1.35-1.57-1.95c-7.17-7.98-26.09-13.07-51.76,8.67c-14.65,12.4-28.44,34.7-28.44,71.74
			c0,42.45,32.79,86.08,90.99,86.08c18.18,21.18,56.51,22.56,59.15,22.56c53.67,0,92.43-48.8,99.88-58.91
			c7.47-10.09,22.23-33.89,22.64-34.62c5.69-9.25,12.79-23.58,22.06-45.2c5.28-12.41,13.56-33.09,13.56-40.2
			C325.91,97.59,322.11,93.96,315.81,93.96z M119.14,251.38c-3.97-7.06-4.79-15.79-2.51-23.63c2.04-7.81,8.22-14.62,14.03-15.15
			c1.42-0.19,2.86-0.13,4.25,0.26c0.54,0.15,1.39,0.3,1.69,0.43c0.21,0.15,0.43,0.26,0.66,0.34c0.47,0.22,1.24,0.62,1.76,0.99
			c2.25,1.54,3.82,3.78,4.68,6.69c0.82,2.88,0.82,6.29-0.07,9.64c-0.94,3.35-2.62,6.7-5.04,9.87c-4.1,5.43-10.69,9.94-18.16,12.58
			C119.96,252.75,119.53,252.08,119.14,251.38z"/>
	</g>
	<path class="st1" d="M526.27,123.58c-3.31-3.24-9.4-3.88-13.11-0.09c-5.32,5.45-2.9,11.74-0.08,14.51
		c2.85,2.77,7.64,2.38,9.64,4.34c0.07,0.07,0.21,0.16,0.22,0.28c1.19,13.1-14.36,40.97-47.02,23.58c1.65-1.03,20-14.16,20-36.57
		c0-48.61-57.75-49.01-57.75-0.22c0,23.35,19.04,36.8,19.04,36.8c-25.75,12.47-49.54,0-49.54,0c2.55-2.17,19.04-13.2,19.04-36.55
		c0-48.78-57.75-48.41-57.75,0.22c0,22.41,18.35,35.3,20,36.33c-3.41,2.49-38.46,16.61-38.46-23.61V41.84l-24.61,9.53v4.27
		c5.71,0,8.74,1.59,8.74,6.83v80.61c0,50.88,56.79,31.66,62.3,28.39c0,0,32.22,14.21,71-0.24c29.38,10.25,42.96,6.98,54.96-5.02
		C534.27,154.86,532.41,129.59,526.27,123.58z M399.37,162.33c-0.82-0.61-14.67-9.7-14.67-32.98c0-12.69,7.5-22.03,15.79-22.02
		c8.83,0,16.66,11.89,16.27,22.02C416.09,146.54,407.3,155.84,399.37,162.33z M468.14,162.33c-0.82-0.61-14.67-9.7-14.67-32.98
		c0-12.69,7.5-22.03,15.79-22.02c8.83,0,16.66,11.89,16.27,22.02C484.86,146.54,476.07,155.84,468.14,162.33z"/>
</g>
</svg>
