<?xml version="1.0" encoding="utf-8"?>
<!-- Generator: Adobe Illustrator 19.1.0, SVG Export Plug-In . SVG Version: 6.00 Build 0)  -->
<svg version="1.1" id="Layer_1" xmlns="http://www.w3.org/2000/svg" xmlns:xlink="http://www.w3.org/1999/xlink" x="0px" y="0px"
	 width="237.79px" height="110.89px" viewBox="0 0 237.79 110.89" style="enable-background:new 0 0 237.79 110.89;"
	 xml:space="preserve">
<style type="text/css">
	.Drop_x0020_Shadow{fill:none;}
	.Round_x0020_Corners_x0020_2_x0020_pt{fill:#FFFFFF;stroke:#231F20;stroke-miterlimit:10;}
	.Live_x0020_Reflect_x0020_X{fill:none;}
	.Bevel_x0020_Soft{fill:url(#SVGID_1_);}
	.Dusk{fill:#FFFFFF;}
	.Foliage_GS{fill:#FFDB00;}
	.Pompadour_GS{fill-rule:evenodd;clip-rule:evenodd;fill:#44ABE0;}
	.st0{fill:#F1F1F1;}
	.st1{fill:#FFFFFF;}
	.st2{fill:#53544A;}
	.st3{fill:#A87200;}
	.st4{fill:#64737F;}
	.st5{clip-path:url(#SVGID_3_);}
	.st6{fill:#191A19;}
	.st7{clip-path:url(#SVGID_3_);fill:#A87200;}
</style>
<linearGradient id="SVGID_1_" gradientUnits="userSpaceOnUse" x1="874.8312" y1="-1015.6523" x2="875.5383" y2="-1014.9452">
	<stop  offset="0" style="stop-color:#DCDDE1"/>
	<stop  offset="0.1799" style="stop-color:#D8D9DD"/>
	<stop  offset="0.3642" style="stop-color:#CCCDD1"/>
	<stop  offset="0.5507" style="stop-color:#B7BABD"/>
	<stop  offset="0.7386" style="stop-color:#9A9EA0"/>
	<stop  offset="0.926" style="stop-color:#767B7C"/>
	<stop  offset="1" style="stop-color:#656B6C"/>
</linearGradient>
<g>
	<path class="st2" d="M134.57,93.74v-1l1.78-0.37V81.53c0-1.85-1.22-3.25-2.89-3.25c-2,0-3.85,1.92-3.85,2.77v11.32l1.78,0.37v1
		h-7.51v-1l2.03-0.37V80.49c0-1.63-0.7-2.26-2.03-2.26v-1l4.18-1.74c0.85,1.07,1.29,2.18,1.48,3.25c1.41-1.55,3.14-3.25,5.4-3.25
		c2.26,0,4.03,1.18,4.59,3.18c1.22-1.78,3.14-3.18,5.1-3.18c4.73,0,5.84,3.07,5.84,6.84v10.02l2.03,0.37v1H145v-1l1.78-0.37V81.42
		c0-2-1.59-3.14-3.37-3.14c-1.63,0-3.48,1.59-3.48,2.03c0,0.59,0.11,1.44,0.11,2.63v9.43l1.78,0.37v1H134.57z"/>
	<path class="st2" d="M157.6,85.27c0.11,2.96,1.74,6.21,5.14,6.21c2.26,0,2.88-1.11,4.07-2.44l1,0.78c-1.81,2.63-3.7,4.44-7.1,4.44
		c-4.33,0-6.81-4.22-6.81-8.58c0-4.62,2.37-10.17,7.43-10.17c3.92,0,6.4,3.48,6.44,7.03L157.6,85.27z M161.52,82.6
		c1.48-0.37,2.03-1.18,2.03-2.96c0-1.85-1.11-2.85-2.77-2.85c-2.55,0-3.55,3.22-3.55,6.92L161.52,82.6z M158.38,73.58l4.96-5.33
		c0.74-0.78,1.26-1.33,2.03-1.33c1.07,0,1.78,0.78,1.78,1.41c0,1.26-0.7,1.41-3.07,2.88l-3.81,2.37H158.38z"/>
	<path class="st2" d="M174.28,75.5c0.7,0.63,1.29,2.03,1.55,3.07c1.41-1.66,3.44-3.07,5.18-3.07c3.48,0,5.62,2.26,5.62,6.1v10.76
		l1.78,0.37v1h-7.25v-1l1.78-0.37V81.9c0-1.78-0.81-3.62-3.4-3.62c-1.78,0-2.48,1.11-3.51,2.18v11.91l1.78,0.37v1h-7.51v-1
		l2.03-0.37V81.42c0-2.15-0.22-3.18-2.4-3.18v-1L174.28,75.5z"/>
	<path class="st2" d="M203.28,90.52c0,0.74,0.11,1.37,0.89,1.37c0.41,0,0.85-0.22,1.26-0.52l0.63,0.78
		c-0.41,0.74-1.81,2.11-3.48,2.11c-1.89,0-2.55-1.22-2.85-2.48c-1.41,1.48-2.81,2.48-4.92,2.48c-2.37,0-4.14-2-4.14-4.36
		c0-4.85,4.99-6.21,8.91-7.84v-1.81c0-1.96-1.48-3.44-2.74-3.44c-0.67,0-0.96,2.48-2.92,2.48c-1.44,0-2.11-0.55-2.11-1.74
		c0-1.55,1.74-2.03,3.14-2.03c2.74,0,8.32,1.63,8.32,5.88V90.52z M199.58,83.42c-3.14,0.85-5.07,2.51-5.07,5.29
		c0,1.52,1.33,2.96,2.44,2.96c1.04,0,2.15-0.55,2.63-1.18V83.42z"/>
	<path class="st2" d="M210.23,75.5c1.11,0.92,1.55,3.77,1.78,5.66h0.07c0.89-2.04,2.18-5.66,4.81-5.66c1.66,0,2.48,0.78,2.48,2.18
		c0,0.96-1.11,2.18-2.52,2.18c-1,0-1.92-0.41-2.18-0.41c-0.78,0-2.18,2.85-2.18,9.47c0,1.11,0.04,2.29,0.22,3.44l2.03,0.37v1h-7.99
		v-1l2.03-0.37v-9.99c0-2.11-0.63-4.44-2.7-4.44v-1L210.23,75.5z"/>
	<path class="st2" d="M230.75,70.29c0-1.22-0.7-1.59-2.03-1.59v-1l5.73-2.22v23.67c0,1.7,0.3,2.66,1.78,2.81v1l-4.11,1.29
		c-0.63-0.63-0.89-1.66-1.11-2.7c-1.15,1.18-2.77,2.7-4.66,2.7c-3.92,0-5.84-4.55-5.84-8.25c0-5.07,1.89-10.5,7.14-10.5
		c1.33,0,2.4,0.41,3.11,0.85V70.29z M230.75,79.35c0-1.44-1.37-2.55-2.88-2.55c-2.59,0-3.66,3.07-3.66,7.03
		c0,2.55,0.92,7.55,4.11,7.55c1.48,0,2.44-1.29,2.44-2.66V79.35z"/>
</g>
<path class="st3" d="M60.25,60.89v-2.07l4.21-0.77l-9.19-16.16l-3.52,5.67v10.49l3.68,0.77v2.07H39.88v-2.07l4.21-0.77V12.33
	c0-2.53-1.46-3.29-4.21-3.29V6.97l11.87-4.6v39.6h0.15l4.21-6.67c3.75-5.97,9.04-12.18,13.02-12.18c2.14,0,4.37,1.76,4.37,4.21
	c0,3.52-2.83,4.83-4.67,4.83c-1.84,0-3.29-1.69-4.6-1.69c-1.46,0-3.75,3.52-4.37,4.67l13.02,22.9l3.68,0.77v2.07H60.25z"/>
<path class="st3" d="M105.98,54.23c0,1.53,0.23,2.83,1.84,2.83c0.84,0,1.76-0.46,2.6-1.07l1.3,1.61c-0.84,1.53-3.75,4.37-7.2,4.37
	c-3.91,0-5.28-2.53-5.9-5.13c-2.91,3.06-5.82,5.13-10.19,5.13c-4.9,0-8.58-4.14-8.58-9.04c0-10.03,10.34-12.87,18.46-16.24v-3.75
	c0-4.06-3.06-7.12-5.67-7.12c-1.38,0-1.99,5.13-6.05,5.13c-2.99,0-4.37-1.15-4.37-3.6c0-3.22,3.6-4.21,6.51-4.21
	c5.67,0,17.23,3.37,17.23,12.18V54.23z M98.32,39.52c-6.51,1.76-10.49,5.21-10.49,10.95c0,3.14,2.76,6.13,5.06,6.13
	c2.14,0,4.44-1.15,5.44-2.45V39.52z"/>
<path class="st3" d="M138.07,23.13c-2.91,0-4.67,1.68-4.67,4.9c0,2.3,2.07,4.37,4.6,5.67c-1.14,4.67-4.67,12.49-7.35,18.53
	l-11.79-29.1l-9.5,2.9v2.07c3.37,0.3,4.14,1,7.51,9.42l9.22,23.24c-17.95,39.93-51.48,56.8-74.84,39.63c3-0.6,7.18-2.62,9.42-4.32
	c2.22-1.7,4.14-4.08,5.24-6.92c1.05-2.84,1.42-6.11,0.53-9.3c-0.81-3.16-3-6.19-5.99-7.88c-0.76-0.43-1.47-0.75-2.36-1.06
	c-0.45-0.14-0.9-0.28-1.36-0.39c-0.42-0.1-0.62-0.1-0.94-0.16c-1.66-0.28-3.39-0.19-5.02,0.19c-1.65,0.37-3.11,1.14-4.45,1.99
	c-1.27,0.92-2.42,1.95-3.32,3.11c-1.89,2.28-3.09,4.9-3.8,7.59c-1.31,4.99-0.16,10.47,0.97,13.7C27,96.96,7.84,82.83,7.84,60.58
	c0-7.02,2.41-21.92,17.21-30.11c1.55-0.86,5.31-2.96,7.7-0.3c1.99,2.23,3.76,2.48,5.59,0.85c2.08-1.87,1.1-4.65-0.48-6.76
	c-0.23-0.32-0.48-0.62-0.73-0.9c-3.32-3.69-12.08-6.05-23.97,4.01C6.39,33.1,0,43.43,0,60.58c0,19.66,15.18,39.86,42.13,39.86
	c8.42,9.81,26.17,10.45,27.39,10.45c24.85,0,42.8-22.6,46.25-27.28c3.46-4.67,10.29-15.69,10.48-16.03
	c2.64-4.28,5.92-10.92,10.21-20.93c2.45-5.75,6.28-15.32,6.28-18.62C142.75,24.81,140.99,23.13,138.07,23.13z M47,96.02
	c-1.84-3.27-2.22-7.31-1.16-10.94c0.94-3.62,3.81-6.77,6.49-7.01c0.66-0.09,1.33-0.06,1.97,0.12c0.25,0.07,0.64,0.14,0.78,0.2
	c0.1,0.07,0.2,0.12,0.3,0.16c0.22,0.1,0.57,0.29,0.81,0.46c1.04,0.71,1.77,1.75,2.17,3.1c0.38,1.34,0.38,2.91-0.03,4.47
	c-0.43,1.55-1.21,3.1-2.33,4.57c-1.9,2.51-4.95,4.6-8.41,5.83C47.39,96.66,47.19,96.35,47,96.02z"/>
<path class="st3" d="M235.52,36.85c-1.53-1.5-4.35-1.79-6.07-0.04c-2.46,2.52-1.34,5.44-0.03,6.72c1.32,1.28,3.54,1.1,4.47,2.01
	c0.03,0.03,0.1,0.07,0.1,0.13c0.55,6.06-6.65,18.97-21.77,10.92c0.76-0.48,9.26-6.56,9.26-16.93c0-22.51-26.74-22.69-26.74-0.1
	c0,10.81,8.82,17.04,8.82,17.04c-11.92,5.77-22.94,0-22.94,0c1.18-1.01,8.82-6.11,8.82-16.93c0-22.59-26.74-22.41-26.74,0.1
	c0,10.38,8.5,16.34,9.26,16.82c-1.58,1.15-17.81,7.69-17.81-10.93V-1l-11.39,4.41v1.98c2.64,0,4.05,0.74,4.05,3.16v37.33
	c0,23.56,26.3,14.66,28.85,13.14c0,0,14.92,6.58,32.88-0.11c13.6,4.75,19.89,3.23,25.45-2.32
	C239.23,51.33,238.36,39.63,235.52,36.85z M176.76,54.79c-0.38-0.28-6.79-4.49-6.79-15.27c0-5.87,3.48-10.2,7.31-10.2
	c4.09,0,7.71,5.51,7.53,10.2C184.5,47.48,180.44,51.78,176.76,54.79z M208.61,54.79c-0.38-0.28-6.79-4.49-6.79-15.27
	c0-5.87,3.48-10.2,7.31-10.2c4.09,0,7.71,5.51,7.53,10.2C216.35,47.48,212.28,51.78,208.61,54.79z"/>
</svg>
