<?xml version="1.0" encoding="utf-8"?>
<!-- Generator: Adobe Illustrator 19.1.0, SVG Export Plug-In . SVG Version: 6.00 Build 0)  -->
<svg version="1.1" id="Logo_1_" xmlns="http://www.w3.org/2000/svg" xmlns:xlink="http://www.w3.org/1999/xlink" x="0px" y="0px"
	 width="283.2px" height="360px" viewBox="0 0 283.2 360" style="enable-background:new 0 0 283.2 360;" xml:space="preserve">
<style type="text/css">
	.Drop_x0020_Shadow{fill:none;}
	.Round_x0020_Corners_x0020_2_x0020_pt{fill:#FFFFFF;stroke:#000000;stroke-miterlimit:10;}
	.Live_x0020_Reflect_x0020_X{fill:none;}
	.Bevel_x0020_Soft{fill:url(#SVGID_1_);}
	.Dusk{fill:#FFFFFF;}
	.Foliage_GS{fill:#FFDD00;}
	.Pompadour_GS{fill-rule:evenodd;clip-rule:evenodd;fill:#44ADE2;}
	.st0{fill:none;}
</style>
<linearGradient id="SVGID_1_" gradientUnits="userSpaceOnUse" x1="-38.4174" y1="0" x2="-37.7103" y2="0.7071">
	<stop  offset="0" style="stop-color:#DEDFE3"/>
	<stop  offset="0.1738" style="stop-color:#D8D9DD"/>
	<stop  offset="0.352" style="stop-color:#C9CACD"/>
	<stop  offset="0.5323" style="stop-color:#B4B5B8"/>
	<stop  offset="0.7139" style="stop-color:#989A9C"/>
	<stop  offset="0.8949" style="stop-color:#797C7E"/>
	<stop  offset="1" style="stop-color:#656B6C"/>
</linearGradient>
<g id="Logo">
	<path d="M244.6,250.1c-0.5-0.7-2.9-0.5-3.4-0.3c-8.6,2.1-11.6-3.5-15.6-11.9c-2.1-7.3-1.6-14.1,1.8-21.2
		c6.6-13.6,12.9-27.3,14.9-42.5c0.4-3.3,0.4-6.7-0.1-10c-0.5-3-1.2-6.7-5.1-6.9c-4.1-0.3-4.9,3.5-5.6,6.4
		c-1.8,6.8-3.5,13.6-4.8,20.5c-2.1,11-4.3,21.9-5.9,33c-1.3,9.2-6.8,19.4-19.9,26.2c-1.4,0.7,0.4-4.5,0.8-5.7
		c5.8-17.3,8.5-30.1,11.1-48.1c1.1-8,1.5-21.8,2-29.8c0.2-2.8,0.1-6.6-3.1-7.2c-4-0.8-4.8,3.2-5.6,6.1c-3.5,12.5-8.1,24.9-10.7,37.6
		c-3.1,15.5-5.2,31.2-1.6,47.1c0.3,1.4,0,3.3-0.8,4.4c-0.9,1.3-5.9,2.8-7.4,2.8c-8.6,0-5.2-29.2-4.5-39c1.6-21.3,3.7-42.5,5.7-63.7
		c1.8-18.4,3.9-36.7,5.8-55.1c0.6-5.7,1.2-11.3,1.8-17c0-0.5-0.7-1.5-1.2-1.6c-0.5-0.1-1.5,0.6-1.6,1.2c-0.8,2.7-1.6,5.5-2,8.3
		c-2.7,23.5-5.5,47-7.9,70.5c-1.7,16.8-3.1,33.7-4.4,50.5c-0.8,10.4-1.5,20.7-1.8,31.1c-0.1,4.3,0.6,8.9,1.9,13
		c2,6.9,10.5,8.8,16.5,3.8c2.4-2.2,4.6-3.9,7.9-4.4c4.1-0.6,15.1-11.5,17.2-14.8c1.1,2.7,1.7,4,2.2,5.5c1.6,4.6,7.3,11.4,11.2,14.1
		c5,3.5,7.9,3.1,11.7-0.9C244.4,251.7,244.9,250.5,244.6,250.1z M229.4,190.5c0.9-5.6,4.9-24.1,6-27.7c0.2-0.7,1.4-0.8,2.1,0.2
		c1.9,3.4,1.4,7.1,1,11.1c-0.9,8.3-3.7,16.8-7,24.5c-1.5,3.5-4,10.1-5.9,12.8C226.7,205.5,228.5,196.4,229.4,190.5z M210.5,158.6
		c2.5,6.6-2.8,36.9-2.8,39.2c-2.3,13-5.7,28-10.2,40.4C194.4,224.1,203.9,169.1,210.5,158.6z"/>
	<path d="M182.1,277.4c-1.2-5.8-2.5-15-4.6-17c-1.1-1.1-5.1-1.3-6.2-0.2c-2.3,2.3-4.2,12-6.3,18l-4.1,13.3c-0.8,3-1.6,5.9-2.3,8.9
		c-0.3,1.4-0.3,3.1,1.4,3.3c1.1,0.1,1.7-0.7,2.3-1.8c0.5-1,2.8-9.6,3.7-12.5c0.8-2.5,4.3-3.1,6.8-3.8c1.1-0.3,4.3-1.6,4.7-1.2
		c4.1,4.1,2,17.5,3.2,18.7c0.7,0.7,1.9,0.8,2.6,0.2C186.6,300.8,183.1,282,182.1,277.4z M173.2,281.2c-0.8,0.1-4.1,1.1-4.4,0
		c-0.4-1.3,1.6-6.7,2.2-8.6c0.5-1.2,1-2.5,1.7-3.8c0.2-0.4,1.2-2.3,2.6-1.8c0.4,0.2,1.1,2.2,1.1,2.6c0.4,2.8,1.2,5.1,1.1,7.9
		C177.4,278.4,174.2,281.1,173.2,281.2z"/>
	<path d="M168.4,170.2c-2.8-0.5-2.8,2.4-3,4.4c-0.3,2.3,0.4,11.7,0.2,14c-1.6,17.7-4.7,35.1-10.5,51.9c-1.1,3-2.6,9.6-5.4,7.7
		c-1.2-0.8-1.4-5.4-1.4-8.1c0.3-13.3,0.8-26.5,1.1-39.8c0.1-3.6,1.4-11.9-1.7-12.3c-1.4-0.2-1.8,4-1.9,5.2c-0.8,13.5-2.3,27-6,40.1
		c-1,3.7-6.4,17.2-8.8,17.2c-1.6,0-2.6-8.6-2.7-11c-0.2-8.6,0.1-17.1,0.2-25.7c0.1-8.3,0.5-16.6,0.1-24.9c-0.3-6.1-1.1-6-6.2-2.7
		c-2.6,1.7-2.4,3.2-0.6,4.8c2,1.8,2,3.9,1.9,6.4c-0.5,7.5-0.6,15.1-0.9,22.6c-0.3,7.6-1.9,15-5.4,21.8c-1.5,2.9-4,5.5-6.3,7.8
		c-3,3-6.3,0-7.6-3.2c-1.2-3.1,1.4-3.3,3.3-4c0.5-0.2,2.1-0.8,1.6-2.1c-2.7-6.3-8.5,4-7.2-10.2c0.5-4.1,0.6-8.3,1.5-12.4
		c2.4-11.2,6.4-22,11.9-32.1c1.3-2.3,4.6-2.1,6.2-2.7c0.6-0.2,1.6-1.1,1.7-1.8c0.1-3.8-2.6-5.6-5.4-3.4c-2.2,1.7-4.1,4-5.5,6.4
		c-8.8,15-14.7,31-14.6,48.7c0,5.2-0.7,5.8-5.8,5.9c-7.3,0.2-19.3,1.4-22.9,1.4c-4.6,0-5.9-1.1-5.6-5.5c0.4-7.3,1.3-14.5,2.3-21.7
		c0.2-1.7,1.2-3.5,2.2-4.9c5.6-8.2,11.3-16.2,16.9-24.4c1.2-1.8,2.9-4.9,1.6-5.7c-1.4-0.8-15.9,18.7-19.3,23.2
		c0.6-6.6,1.3-11,1.3-14.5c0.1-23.4,0.2-46.8,0.4-70.2c0.1-13.5,0.2-27,0.7-40.5c0.3-6.4,1.7-12.8,2.3-19.3c0.1-1.4-1-3.9-2.1-4.3
		c-2.3-0.8-3,1.5-3.1,3.4c-0.8,9-2.1,18.1-2.1,27.2c-0.2,23.4,0.3,46.8,0.1,70.3c-0.2,15.3-1,30.7-1.8,46c-0.3,5.8-2,11.1-5.9,15.8
		c-4.5,5.4-15.6,23-16.7,26.2c-1.3,3.7,0.3,6.1,4.2,6.6c2,0.3,4.1-0.2,6.2-0.4c8-0.9,5.3,0,6.3,4.7c0.4,1.8,0.6,4.2,1.3,5.8
		c0.3,0.7,1.7,1.5,2.4,1.4c0.8-0.1,2-1.1,2.1-1.9c0.3-1.8,0.1-4.2,0-6c-0.3-4.8,0-5.6,4.8-6c10.1-1,10.4-1.6,20.5-2.6
		c5.5-0.5,9.5-0.2,12.7,5.8c4.3,8.2,11.4,9.2,17.3-0.1c2.1-3.2,3.8-6.7,6-10.7c0.6,2.7,3.7,17.4,7.8,17.4c3.6,0,10.5-16,12-19.3
		c0.6,4,0.7,19.3,6.8,19.3c5.4,0,8.1-12.6,9-14.9c0.8-2.4,2.1-6.4,1.5,0.5c-0.3,3.6-0.5,7.2-0.9,10.8c-0.4,3.5-5.5,37-9.7,43
		c-2.9-4.9-6-20.4-6.3-25.6c-0.1-2.1-0.2-5.8-0.7-7.8c-0.2-0.8-1.3-1.9-2.1-2c-0.7-0.1-1.9,0.9-2.3,1.6c-5.6,10-6.8,27.9-7.1,29.1
		c-4.3-3-13.1,5-14.5,7.2c-0.9,1.5-3.4,2-4.5,0.7c-4.1-5.2-2.6-13,3.3-16.2c1.8-1,3.4-2.3,4.8-3.7c0.4-0.3,0.1-1.4-0.1-2.1
		c-0.1-0.2-0.9-0.4-1.4-0.3c-2.1,0.2-3.9,4.3-6.7,3c-0.6-0.6-1.2-2-0.6-3.9c0-0.1,1.5-2.1,5-4c3.5-2,5.2-3.6,2.4-4.5
		c-2.8-0.9-9.9,4.5-9.9,4.5c-0.8,0.5-1.5,1.5-2,2.3c-1.3,2.6-1.1,5.2-1.4,8.5c-0.2,1.9-7.4,8.2-10.3,9.6c0.4-7.9,0.7-15.8,1-23.6
		c0.1-1.5-0.1-3.1-0.4-4.6c-0.1-0.6-0.9-1.4-1.5-1.5c-0.6-0.2-1.7,0.2-2,0.7c-0.9,1.3-1.5,2.7-2.2,4.1c-4.3,7.4-8.7,14.8-16.4,19.4
		c-4.3-2.1-6.1-5.6-6.2-10.1c0-2.3,0.6-11.8,0.2-14c-0.1-0.8-1.2-1.9-2-2c-0.7-0.1-2,0.7-2.4,1.5c-1.8,4-3.3,8.4-3.4,12.9
		c-0.1,5.7-0.7,11.4-0.7,17.1c0,4.7,0.7,9.3,1.3,13.9c0.2,1.3,1.2,2.7,2.7,2.2c1-0.4,1.5-2.2,1.7-3.3c0.4-1.7-1.2-22.9-0.9-22
		c1.5,4.4,5.6,7.1,6.6,7.8c2.2,1.8,4.4,1.5,6.4-0.1c1.6-1.3,3.3-2.6,4.5-4.2c1.9-2.4,3.5-4.1,5.3-6.5c0.7-1,2.6-3.8,4.5-2.7
		c-0.2,1.7-0.2,5.6-0.3,7.4c-0.2,6.2-1.7,11.8-1.7,18.1c0,1.3,1,2.6,2.6,2.2c0.8-0.2,1.9-1.2,2-1.9c0.3-2,0.6-4.1,0.8-6.2
		c3.1-0.4,11.1-7.5,10.9-5c-0.4,4.5,1.3,7.7,3.8,11c1.4,1.9,3.5,2.6,5.6,1.6c2.7-1.3,6.1-5.8,8.7-7.4c10.1-6.1,4.9,4.6,6.2,7
		c0.2,0.5,2.1,1.1,2.8,0.8c0.8-0.4,1.4-1.7,1.6-2.6c0.7-3.3,1.2-6.6,1.5-9.9c0.5-5,1.1-12.4,3-16.2c2.4,5,5.5,20.2,8,25.4
		c0.4,0.9,1,1.8,1.6,2.6c0.4,0.5,1.3,0.9,2,0.8c1,0,1.9-3.2,2.1-4.2c1-4.8,6.4-17.9,9.7-36.8c2.2-12.4,2.8-23.9,4.1-37.3
		c1-10.1,1.8-20.2,2.6-30.3c0.6-6.7,1.4-13.4,1.6-20.2C171.1,173.3,169.6,170.4,168.4,170.2z M56.8,239.7c-0.4,2.3-9,4.6-11,3.2
		c-0.6-0.4-1-1.8-0.7-2.6c0.4-1.5,1.1-2.9,2-4.2c3.3-4.7,8.5-11.8,12.8-17.8C58,227.6,57.7,234,56.8,239.7z"/>
	<path d="M233.1,269.5c-2.8-2.5-5.4-5.6-8.3-8c0,0-2.7-2.3-3.7-1.9c-3,1.2-2,5.6-2.5,7.8c-0.4,2-0.4,20-2.2,26.7
		c-0.6,2.2-1.3,4.5-1.9,6.7c-2.6-2.3-7-6.1-9.1-7.7c-1.8-1.5-4.2-3.5-5.7-5.4c1.2-0.7,2.2-1.1,3.2-1.7c2.3-1.7,4.9-3.1,6.8-5.2
		c3.9-4.6,6-11.8-0.7-18.5c-3.9-3.9-8.8-3.4-12,0.7c-0.8,1.1-1.2,2.6-1.7,3.9c-3.5,9.7-5,20-7.5,30c-0.4,1.6-0.7,3.3-0.7,5
		c0,0.7,0.9,1.6,1.6,2c0.4,0.2,1.5-0.3,1.8-0.7c1.3-2.3,1.6-7.6,2.8-10c1.6-3.1,0.6-3.1,6.1,0.7c2.3,1.7,8.9,7.5,11.4,9
		c1.1,0.7,3.9,2.5,5.4,1.7c1.3-0.7,2.5-1.6,3.5-2.6c2.5-2.5,4.9-5,7.2-7.7c2.9-3.3,5.8-6.6,8.2-10.2
		C238.8,278.2,238.1,274,233.1,269.5z M196.6,284.2c-2.9-2,2.1-15.7,2.7-17.3c0.6-1.7,1.7-3.5,3.9-3.3c1.4,0.1,2.9,1.2,3.9,2.2
		c3.1,3.2,3.3,6.8,0.9,10.4c-1.1,1.7-2.6,3.3-4.1,4.8C202.5,282.4,198.8,285.7,196.6,284.2z M232.9,280.4c-2.1,4-7.7,10.6-11.3,13.5
		c-0.9-3-0.1-6.6,0.2-10.6c0.2-2.6,0.5-14.5,0.6-17.7c3.7,1.7,8.1,5.8,10.3,7.8C234.4,275.3,234.1,278.2,232.9,280.4z"/>
	<path d="M105.4,266.7c3.9-3.5,3.9-3.5,7.9-6.8c2-1.6,3.9-3.4,5.5-4.5c1.5-1.2,1.2-1.2,2.6-2c0.7-0.4,1.5,0.2,1.8,1.1
		c0.3,0.7,0.1,1.2-0.3,1.7c-1.1,1.2-0.8,1.1-2.3,2.3c-1.5,1.2-3.6,2.7-5.7,4.2c-4.2,3-4.2,3-8.5,5.8c-0.4,0.3-1,0.1-1.2-0.4
		C104.9,267.6,105.1,267,105.4,266.7z"/>
</g>
<rect id="Bufferzone" x="-0.2" class="st0" width="283.6" height="360"/>
</svg>
